# xmcd
#
# Track frame offsets: 
#        150
#        39607
#        52808
#        69548
#        87364
#        111999
#        131980
#        155807
#        180983
#        215501
#        258398
#        293911
#        332830
#
# Disc length: 4773 seconds
#
# Revision: 1
# Processed by: cddbd v1.5.2PL0 Copyright (c) Steve Scherf et al.
# Submitted via: ExactAudioCopy v1.0b3
#
DISCID=c612a30d
DTITLE=Love Committee - Law and Order and 5 - JP
DYEAR=2012
DGENRE=Soul
TTITLE0=Law And Order
TTITLE1=Tired Of Being Your Fool
TTITLE2=If You Change Your Mind
TTITLE3=Cheaters Never Win
TTITLE4=Pass The Buck
TTITLE5=Put It In The Back Of Your Mind
TTITLE6=Give Her Love
TTITLE7=Just As Long As I Got You
TTITLE8=Where Will It End (Original Walter Gibbons 12" Mix)
TTITLE9=Law And Order (Original Walter Gibbons 12"Mix)
TTITLE10=Cheaters Never Win (Original Walter Gibbons 12"Mix)
TTITLE11=Just As Long As I Got You (Original Walter Gibbons 12"Mix)
TTITLE12=Cheaters Never Win (Original Acappela Version)
EXTD=
EXTT0=
EXTT1=
EXTT2=
EXTT3=
EXTT4=
EXTT5=
EXTT6=
EXTT7=
EXTT8=
EXTT9=
EXTT10=
EXTT11=
EXTT12=
PLAYORDER=
